PathFileType	4	(X/Y/Z)	Walk8.trc
DataRate	CameraRate	NumFrames	NumMarkers	Units	OrigDataRate	OrigDataStartFrame	OrigNumFrames
200.000000	200.000000	6	61	mm	200.000000	229	439
Frame#	Times		LFHD		RFHD		LBHD		CLAV		STRN		LASI		RASI		RACR1		RUA1		RFA1		RWRR		RWRU		RCAR		LACR1		LUA1		LFA1		LWRU		LCAR		RTH3		RTH2		RTH4		RMFC		RTB1		RTB3		RTB4		RMT5		LTH1		LTH3		LTH2		LTH4		LLFC		LTB1		LTB3		LTB2		LTB4		LMMAL		LToe		RLFC		RTH1		RElbow		RToe		RTB2		T10		LElbow		RMT1		RMMAL		LMFC		LPSI		RBack		LWRR		LMT5		RBHD		RLMAL		LCAL		RPSI		RCAL		LLMAL		RElbowM		C7		LMT1		LElbowM
			X1	Y1	Z1	X2	Y2	Z2	X3	Y3	Z3	X4	Y4	Z4	X5	Y5	Z5	X6	Y6	Z6	X7	Y7	Z7	X8	Y8	Z8	X9	Y9	Z9	X10	Y10	Z10	X11	Y11	Z11	X12	Y12	Z12	X13	Y13	Z13	X14	Y14	Z14	X15	Y15	Z15	X16	Y16	Z16	X17	Y17	Z17	X18	Y18	Z18	X19	Y19	Z19	X20	Y20	Z20	X21	Y21	Z21	X22	Y22	Z22	X23	Y23	Z23	X24	Y24	Z24	X25	Y25	Z25	X26	Y26	Z26	X27	Y27	Z27	X28	Y28	Z28	X29	Y29	Z29	X30	Y30	Z30	X31	Y31	Z31	X32	Y32	Z32	X33	Y33	Z33	X34	Y34	Z34	X35	Y35	Z35	X36	Y36	Z36	X37	Y37	Z37	X38	Y38	Z38	X39	Y39	Z39	X40	Y40	Z40	X41	Y41	Z41	X42	Y42	Z42	X43	Y43	Z43	X44	Y44	Z44	X45	Y45	Z45	X46	Y46	Z46	X47	Y47	Z47	X48	Y48	Z48	X49	Y49	Z49	X50	Y50	Z50	X51	Y51	Z51	X52	Y52	Z52	X53	Y53	Z53	X54	Y54	Z54	X55	Y55	Z55	X56	Y56	Z56	X57	Y57	Z57	X58	Y58	Z58	X59	Y59	Z59	X60	Y60	Z60	X61	Y61	Z61

229	1.145	115.21	1588.3	-53.922	106.74	1589.3	45.375	-26.017	1525.6	-87.568	69.55	1313.1	-7.5074	86.935	1178.5	-1.2806	38.803	908.17	-116.45	41.665	921.14	131.6	-15.421	1346.7	154.32	-42.686	1179	207.77	-36.207	891.33	274.22	-40.984	769.6	279.57	22.551	777.75	253.04	1.6825	709	296.91	9.496	1366.8	-162.91	12.99	1199.2	-237.62	119.17	942.59	-292.68	224.02	883.67	-260.64	251.17	818.9	-295.77	103.83	605.97	175.51	113.45	710.8	182.03	65.747	679.23	195.01	156.31	469.54	26.619	192.32	367.89	121.82	171.81	197.98	105.79	182.35	282.19	115.34	214.17	45.173	130.82	-35.352	743.37	-177.99	-73.708	579.51	-142.77	-1.1782	654.56	-138.19	-55.895	660.74	-161.39	-112.66	441.37	-119.06	-97.19	339.09	-50.132	-147.68	177.19	-31.809	-139.87	256.02	-101.02	-125.91	258.02	-41.329	-206.63	96.126	10.15	-32.951	26.255	-26.543	167.44	475.75	151.08	25.04	754.03	215.18	-72.094	1015.4	239.99	295.86	67.427	91.41	136.09	285.01	155.37	-121.84	1210.3	-12.864	18.313	1046.4	-280.19	250.82	63.773	54.933	130.72	110.26	39.963	-140.45	442.19	11.893	-134.44	966.76	-39.751	-124.59	1295.6	50.909	173.46	839.15	-276.7	-122.15	23.417	-79.21	-35.552	1533	55.198	111.82	89.724	119.4	-281.3	53.73	-25.143	-130.92	959.77	60.088	64.333	62.718	70.884	-223.59	75.893	-68.568	-88.073	1008.9	163.49	-38.013	1418.6	-14.449	-89.019	31.783	1.8633	-3.3235	1017	-214.97
230	1.15	122.14	1587.5	-53.996	113.61	1588.4	45.288	-18.911	1524.4	-87.757	76.776	1312.1	-7.6127	94.102	1177.3	-1.4189	45.498	907.19	-116.67	49.591	920.06	131.56	-8.1993	1345.7	154.21	-36.46	1178.3	207.73	-31.08	890.61	274.57	-36.296	768.85	280.07	27.327	776.82	253.7	6.0482	708.07	297.39	16.829	1365.9	-162.95	21.057	1198.5	-237.87	129.52	943.16	-292.52	234.87	885.62	-259.71	263.2	821.19	-294.57	110.62	604.47	175.48	120.66	709.23	182.32	72.826	677.82	195.26	162.53	467.93	26.656	203.14	368.14	121.72	189.03	197.59	105.73	196.35	282.13	115.24	237.1	46.204	130.56	-30.129	742.91	-178.09	-69.766	579.39	-142.84	3.3621	653.77	-138.48	-51.31	660.46	-161.51	-109.93	441.51	-119.14	-94.981	338.97	-50.293	-146.58	177.41	-32.018	-138.39	256.24	-101.13	-124.27	258.12	-41.486	-206.13	96.787	10.16	-32.859	26.13	-26.606	174.81	474.7	151.01	32.506	752.71	215.7	-66.412	1014.8	239.97	317.89	71.399	90.909	150.23	283.16	155.47	-114.68	1209.4	-12.824	27.384	1045.8	-280.74	272.9	66.312	54.627	151.16	108.42	40.005	-137.22	442.43	11.94	-127.4	965.66	-38.912	-117.4	1294.7	50.783	185.04	840.42	-276.18	-122.21	23.445	-79.14	-28.585	1531.8	54.998	133.16	87.075	119.5	-281.12	54.799	-25.027	-123.4	958.62	60.845	86.559	58.426	70.997	-223.3	76.621	-68.529	-82.142	1008.2	163.54	-30.747	1417.7	-14.574	-88.945	31.74	1.8074	5.5217	1016.1	-215.69
231	1.155	129.09	1586.6	-54.06	120.49	1587.5	45.211	-11.796	1523.2	-87.931	84.026	1311	-7.7102	101.3	1176.1	-1.5445	52.21	906.19	-116.89	57.578	918.94	131.51	-0.93523	1344.7	154.11	-30.14	1177.5	207.71	-25.864	889.86	274.93	-31.519	768.08	280.57	32.174	775.86	254.35	10.517	707.12	297.88	24.159	1365	-162.97	29.136	1197.8	-238.09	139.75	943.66	-292.33	245.54	887.43	-258.8	274.98	823.35	-293.39	117.26	602.82	175.52	127.82	707.49	182.56	79.836	676.29	195.53	168.58	466.08	26.67	213.75	368.36	121.66	205.97	197.39	105.71	210.12	282.15	115.19	259.66	47.586	130.3	-24.869	742.44	-178.19	-65.74	579.25	-142.91	7.968	652.99	-138.79	-46.665	660.17	-161.64	-107.07	441.63	-119.22	-92.655	338.82	-50.449	-145.42	177.62	-32.231	-136.81	256.46	-101.23	-122.54	258.2	-41.642	-205.58	97.47	10.16	-32.758	25.994	-26.663	182.01	473.51	150.95	40.004	751.33	216.22	-60.651	1014.1	240	339.44	75.664	90.378	164.15	281.44	155.58	-107.49	1208.4	-12.748	36.416	1045.2	-281.25	294.54	69.163	54.317	171.33	106.9	40.068	-133.82	442.64	12	-120.33	964.52	-38.026	-110.18	1293.7	50.692	196.41	841.59	-275.65	-122.26	23.477	-79.072	-21.601	1530.6	54.809	154.24	84.787	119.61	-280.92	55.926	-24.933	-115.83	957.44	61.645	108.56	54.529	71.127	-223	77.383	-68.509	-76.156	1007.4	163.61	-23.466	1416.7	-14.678	-88.876	31.692	1.7571	14.339	1015.1	-216.35
232	1.16	136.04	1585.7	-54.114	127.39	1586.6	45.145	-4.6729	1522	-88.088	91.3	1310	-7.7992	108.54	1175	-1.6583	58.943	905.17	-117.12	65.623	917.8	131.46	6.3702	1343.6	154.04	-23.72	1176.6	207.72	-20.555	889.08	275.32	-26.652	767.29	281.09	37.093	774.89	255	15.091	706.15	298.38	31.484	1364	-162.96	37.227	1197	-238.27	149.84	944.08	-292.14	256.05	889.11	-257.92	286.51	825.37	-292.26	123.78	601.01	175.66	134.93	705.6	182.75	86.791	674.65	195.82	174.49	464.02	26.66	224.16	368.56	121.64	222.58	197.36	105.74	223.62	282.24	115.19	281.77	49.287	130.07	-19.561	741.97	-178.28	-61.621	579.11	-142.97	12.65	652.21	-139.12	-41.947	659.86	-161.75	-104.05	441.74	-119.28	-90.204	338.65	-50.598	-144.2	177.82	-32.444	-135.14	256.69	-101.34	-120.72	258.26	-41.794	-205	98.175	10.151	-32.647	25.85	-26.711	189.06	472.19	150.89	47.544	749.9	216.72	-54.81	1013.4	240.06	360.47	80.18	89.832	177.82	279.84	155.7	-100.28	1207.4	-12.635	45.4	1044.5	-281.71	315.67	72.29	54.012	191.15	105.69	40.148	-130.26	442.81	12.071	-113.21	963.35	-37.097	-102.93	1292.7	50.636	207.59	842.67	-275.11	-122.31	23.513	-79.008	-14.597	1529.3	54.635	174.98	82.854	119.73	-280.69	57.116	-24.86	-108.2	956.23	62.486	130.26	51.024	71.265	-222.66	78.181	-68.508	-70.11	1006.7	163.71	-16.172	1415.6	-14.761	-88.81	31.638	1.7149	23.124	1014.1	-216.94
233	1.165	143.01	1584.7	-54.156	134.29	1585.6	45.093	2.4574	1520.7	-88.227	98.596	1308.8	-7.8783	115.81	1173.8	-1.761	65.706	904.13	-117.33	73.725	916.64	131.41	13.717	1342.6	153.99	-17.2	1175.8	207.76	-15.154	888.29	275.72	-21.694	766.49	281.61	42.091	773.89	255.65	19.773	705.16	298.88	38.802	1363.1	-162.94	45.327	1196.2	-238.41	159.8	944.42	-291.92	266.38	890.64	-257.06	297.8	827.23	-291.16	130.2	599.07	175.92	142.02	703.56	182.89	93.706	672.93	196.16	180.28	461.75	26.624	234.34	368.73	121.66	238.82	197.49	105.82	236.83	282.4	115.22	303.34	51.268	129.86	-14.191	741.49	-178.36	-57.396	578.95	-143.03	17.419	651.44	-139.46	-37.147	659.53	-161.86	-100.87	441.82	-119.32	-87.625	338.44	-50.738	-142.93	178.02	-32.655	-133.37	256.91	-101.43	-118.81	258.31	-41.943	-204.39	98.907	10.131	-32.527	25.697	-26.748	195.98	470.76	150.85	55.132	748.45	217.2	-48.888	1012.7	240.16	380.9	84.895	89.286	191.2	278.36	155.81	-93.042	1206.3	-12.485	54.333	1043.8	-282.13	336.24	75.644	53.726	210.57	104.77	40.239	-126.52	442.95	12.156	-106.04	962.15	-36.124	-95.656	1291.6	50.616	218.57	843.66	-274.57	-122.34	23.554	-78.944	-7.5744	1528	54.478	195.3	81.257	119.86	-280.45	58.372	-24.811	-100.5	954.99	63.368	151.57	47.902	71.4	-222.29	79.02	-68.526	-64.002	1005.9	163.83	-8.8647	1414.5	-14.818	-88.745	31.576	1.6828	31.871	1013.1	-217.46
234	1.17	149.99	1583.8	-54.185	141.22	1584.6	45.053	9.5952	1519.5	-88.346	105.91	1307.7	-7.9458	123.12	1172.5	-1.8531	72.504	903.08	-117.55	81.879	915.47	131.35	21.104	1341.4	153.96	-10.576	1174.9	207.82	-9.6579	887.47	276.14	-16.643	765.68	282.14	47.172	772.88	256.32	24.563	704.16	299.4	46.11	1362.1	-162.89	53.431	1195.3	-238.51	169.62	944.68	-291.7	276.54	892.03	-256.23	308.84	828.94	-290.1	136.54	597.01	176.31	149.09	701.4	182.96	100.6	671.14	196.54	185.98	459.32	26.563	244.31	368.86	121.71	254.65	197.76	105.94	249.72	282.6	115.3	324.31	53.481	129.69	-8.7476	741	-178.41	-53.056	578.78	-143.08	22.286	650.67	-139.81	-32.251	659.19	-161.96	-97.529	441.89	-119.35	-84.913	338.2	-50.87	-141.59	178.22	-32.863	-131.49	257.13	-101.53	-116.79	258.35	-42.086	-203.73	99.669	10.101	-32.397	25.536	-26.775	202.81	469.22	150.8	62.771	746.98	217.64	-42.883	1012	240.3	400.68	89.746	88.758	204.27	276.99	155.92	-85.775	1205.2	-12.296	63.207	1043.1	-282.49	356.2	79.167	53.468	229.52	104.12	40.332	-122.61	443.06	12.255	-98.823	960.93	-35.111	-88.346	1290.5	50.635	229.35	844.55	-274.02	-122.37	23.599	-78.882	-0.53291	1526.7	54.341	215.12	79.976	119.98	-280.18	59.701	-24.786	-92.75	953.75	64.288	172.4	45.15	71.518	-221.89	79.903	-68.563	-57.828	1005.1	163.97	-1.5444	1413.4	-14.848	-88.683	31.506	1.6631	40.573	1012.1	-217.91
